<?xml version="1.0" encoding="UTF-8" standalone="no"?>
<svg xmlns:rdf="http://www.w3.org/1999/02/22-rdf-syntax-ns#" xmlns="http://www.w3.org/2000/svg" contentScriptType="text/ecmascript" viewBox="0 0 482.87709 122.876" height="122.88" width="482.88" contentStyleType="text/css" version="1.1" zoomAndPan="magnify" preserveAspectRatio="xMidYMid meet" xmlns:cc="http://creativecommons.org/ns#" xmlns:xlink="http://www.w3.org/1999/xlink" xmlns:dc="http://purl.org/dc/elements/1.1/">
 <defs>
  <linearGradient id="linearGradient21275" y2="225.62" gradientUnits="userSpaceOnUse" x2="427.48" gradientTransform="matrix(.28060 0 0 -.29566 308.73 174.93)" y1="37.869" x1="427.48">
   <stop offset="0"/>
   <stop stop-opacity="0" offset="1"/>
  </linearGradient>
  <linearGradient id="linearGradient5274" y2="19.034" xlink:href="#linearGradient21275" gradientUnits="userSpaceOnUse" x2="144.72" gradientTransform="matrix(1.4028 0 0 1.4015 -4.6202 -8.6581)" y1="100.68" x1="155.86"/>
  <linearGradient id="linearGradient6136" y2="176.39" gradientUnits="userSpaceOnUse" x2="321.7" gradientTransform="translate(-70.011 -122.58)" y1="138.16" x1="321.44">
   <stop stop-color="#FFF" offset="0"/>
   <stop stop-color="#FFF" stop-opacity="0" offset="1"/>
  </linearGradient>
  <linearGradient id="linearGradient6185" y2="72.949" xlink:href="#linearGradient21275" gradientUnits="userSpaceOnUse" x2="243.76" gradientTransform="translate(-19.548 3.9655)" y1="125.5" x1="244.05"/>
  <linearGradient id="linearGradient6223" y2="100.33" gradientUnits="userSpaceOnUse" x2="248.72" gradientTransform="translate(-6.6205 -6.6581)" y1="-14.811" x1="248.72">
   <stop stop-color="#FFF" offset="0"/>
   <stop stop-opacity="0" stop-color="#FFF" offset="1"/>
  </linearGradient>
 </defs>
 <path id="bgColor00" fill="#003380" d="m61.441 1.751c-32.94 0-59.644 26.681-59.644 59.591s26.704 59.592 59.644 59.592h359.87c32.94 0 59.646-26.681 59.646-59.592 0-32.91-26.704-59.591-59.646-59.591h-359.87z"/>
 <path opacity=".6" fill="url(#linearGradient6223)" d="m56.451 3.7089c-18.241 0-33.029 14.775-33.029 33s14.788 33 33.029 33h371.29c18.241 0 33.03-14.775 33.03-33s-14.788-33-33.03-33h-371.29z"/>
 <path fill="#333" d="m61.441 1.751c-32.94 0-59.644 26.681-59.644 59.591s26.704 59.592 59.644 59.592h359.87c32.94 0 59.646-26.681 59.646-59.592 0-32.91-26.704-59.591-59.646-59.591h-359.87zm-22.123 111.92c-13.903-5.83-23.932-16.77-30.251-30.227-6.1183-14.398-5.4384-29.778 0-44.207 5.8378-13.9 16.788-23.915 30.251-30.224 7.0054-2.96 14.448-4.461 22.123-4.461h359.87c7.6745 0 15.118 1.501 22.123 4.461 13.902 5.8288 23.933 16.765 30.251 30.224 6.1194 14.399 5.4392 29.777 0 44.207-5.8387 13.898-16.789 23.915-30.251 30.224-7.0054 2.96-14.45 4.4624-22.123 4.4624h-359.87c-7.6884 0.16032-15-1.7814-22.123-4.4624z"/>
 <path fill-opacity=".55" fill="#333" d="m61.499 0c-33.931 0-61.5 27.533-61.5 61.438 0 33.904 27.569 61.438 61.5 61.438h359.88c33.931 0 61.5-27.532 61.5-61.438 0-33.908-27.57-61.442-61.5-61.442h-359.88zm0 6.5h359.88c7.4389 0 14.629 1.4175 21.406 4.2812 13.416 5.6249 23.117 16.151 29.281 29.25 0.0101 0.0214 0.0212 0.0411 0.0312 0.0625 5.8774 13.88 5.243 28.686-0.0312 42.719-0.008 0.0218-0.023 0.0407-0.0312 0.0625-5.6406 13.377-16.169 23.041-29.25 29.188-0.009 0.004-0.0222-0.004-0.0312 0-0.013 0.006-0.0182 0.0251-0.0312 0.0312-6.7629 2.8476-13.935 4.2812-21.344 4.2812h-359.88a1.8364 1.8364 0 0 0 -0.03125 0c-7.3313 0.15287-14.387-1.6871-21.375-4.3125-0.0217-0.009-0.04082-0.0221-0.0625-0.0312-13.383-5.6309-23.064-16.142-29.219-29.219-0.0039-0.009 0.0039-0.0221 0-0.0312-0.0061-0.0131-0.02512-0.0182-0.03125-0.0312-5.8763-13.879-5.2421-28.687 0.03125-42.719 0.0091-0.0217 0.02211-0.0408 0.03125-0.0625 5.6398-13.379 16.168-23.042 29.25-29.188 0.02134-0.01 0.04115-0.0212 0.0625-0.0312 6.7587-2.8456 13.928-4.25 21.344-4.25z"/>
 <path opacity=".77404" fill="url(#linearGradient6136)" d="m61.441 3.7509c-32.94 0-59.644 26.681-59.644 59.591 0 8.6035 26.704-0.40768 59.644-0.40768h359.87c32.94 0 59.646 14.925 59.646 0.40768 0-32.91-26.704-59.591-59.646-59.591h-359.87z"/>
 <path opacity=".5" fill="url(#linearGradient6185)" d="m1.796 69.684c4.0672 28.954 28.96 51.25 59.063 51.25h359.87c30.101 0 54.964-22.296 59.031-51.25h-477.97z"/>
 <path opacity=".25" fill="url(#linearGradient5274)" d="m467.98 30.83c3.8282 7.55 5.9996 16.08 5.9996 25.124 0 30.758-24.954 55.689-55.738 55.689h-353.47c-30.782 0-55.738-24.932-55.738-55.689 0-9.0356 2.1673-17.56 5.9912-25.107l-1.9947-3.3356c-5.838 9.21-9.2329 20.121-9.2329 31.832 0 32.912 26.704 59.592 59.646 59.592h355.87c32.941 0 59.646-26.681 59.646-59.592 0-11.42-3.2207-22.088-8.7968-31.153l-0.1827 2.6404-1.9997-0.0008z"/>
 <path fill-opacity=".3" fill="#333" d="m61.88 3.7079c-21.347 0-40.431 11.075-50.302 27.953 0.3535 0.35318 1.2863 1.3749 2.1771 0.68394 11.607-16.875 28.163-23.439 48.124-24.57h359.45c20.741-0.1803 35.65 8.9427 48.123 24.57 0.89356 0.69094 1.825-0.33076 2.1785-0.68394-9.87-16.877-28.95-27.953-50.3-27.953h-359.45z"/>
</svg>
