<?xml version="1.0" encoding="UTF-8" standalone="no"?>
<svg xmlns:rdf="http://www.w3.org/1999/02/22-rdf-syntax-ns#" xmlns="http://www.w3.org/2000/svg" contentScriptType="text/ecmascript" viewBox="0 0 479.16712 119.18432" height="119.18" width="479.17" contentStyleType="text/css" version="1.1" zoomAndPan="magnify" preserveAspectRatio="xMidYMid meet" xmlns:cc="http://creativecommons.org/ns#" xmlns:xlink="http://www.w3.org/1999/xlink" xmlns:dc="http://purl.org/dc/elements/1.1/">
 <defs>
  <linearGradient id="linearGradient21275" x1="427.48" gradientUnits="userSpaceOnUse" y1="37.869" gradientTransform="matrix(.28060 0 0 -.29566 308.73 174.93)" x2="427.48" y2="225.62">
   <stop offset="0"/>
   <stop stop-opacity="0" offset="1"/>
  </linearGradient>
  <linearGradient id="linearGradient5274" x1="155.86" xlink:href="#linearGradient21275" gradientUnits="userSpaceOnUse" y1="100.68" gradientTransform="matrix(1.4028 0 0 1.4015 -6.4117 -8.4091)" x2="144.72" y2="19.034"/>
  <linearGradient id="linearGradient6136" x1="321.44" gradientUnits="userSpaceOnUse" y1="138.16" gradientTransform="translate(-71.802 -126.34)" x2="321.7" y2="176.39">
   <stop stop-color="#FFF" offset="0"/>
   <stop stop-color="#FFF" stop-opacity="0" offset="1"/>
  </linearGradient>
  <linearGradient id="linearGradient6185" x1="244.05" xlink:href="#linearGradient21275" gradientUnits="userSpaceOnUse" y1="125.5" gradientTransform="translate(-21.339 2.2145)" x2="243.76" y2="72.949"/>
  <linearGradient id="linearGradient6223" x1="248.71" gradientUnits="userSpaceOnUse" x2="248.71" gradientTransform="translate(-8.412 -8.4091)" y1="3.6819" y2="99.694">
   <stop stop-color="#FFF" offset="0"/>
   <stop stop-opacity="0" stop-color="#FFF" offset="1"/>
  </linearGradient>
 </defs>
 <path id="bgColor00" fill="#003380" d="m59.649 0.00002c-32.94 0-59.644 26.681-59.644 59.591s26.704 59.592 59.644 59.592h359.87c32.94 0 59.646-26.681 59.646-59.592 0-32.91-26.704-59.591-59.646-59.591h-359.87z"/>
 <path opacity=".2" fill="#4d4d4d" d="m59.649 0c-32.94 0-59.644 26.681-59.644 59.591s26.704 59.592 59.644 59.592h359.87c32.94 0 59.646-26.681 59.646-59.592 0-32.907-26.71-59.588-59.65-59.588h-359.87zm-22.123 111.92c-13.903-5.83-23.932-16.768-30.251-30.226-6.1183-14.398-5.4384-29.778 0-44.207 5.8378-13.9 16.788-23.915 30.251-30.224 7.0054-2.96 14.448-4.461 22.123-4.461h359.87c7.6745 0 15.118 1.501 22.123 4.461 13.902 5.8288 23.933 16.765 30.251 30.224 6.1194 14.399 5.4392 29.777 0 44.207-5.8387 13.898-16.789 23.915-30.251 30.224-7.0054 2.96-14.45 4.4624-22.123 4.4624h-359.87c-7.6884 0.16032-15-1.7814-22.123-4.4624z"/>
 <path opacity=".77404" fill="url(#linearGradient6136)" d="m59.649 0.00002c-32.94 0-59.644 26.681-59.644 59.591 0 8.6035 26.704-0.40768 59.644-0.40768h359.87c32.94 0 59.646 14.925 59.646 0.40768 0-32.91-26.704-59.591-59.646-59.591h-359.87z"/>
 <path opacity=".25" fill="url(#linearGradient6185)" d="m0.004505 67.933c4.0672 28.954 28.96 51.25 59.063 51.25h359.87c30.101 0 54.964-22.296 59.031-51.25h-477.97z"/>
 <path opacity=".25" fill="url(#linearGradient5274)" d="m468.19 31.079c3.8282 7.55 5.9996 16.08 5.9996 25.124 0 30.758-24.954 55.689-55.738 55.689h-357.47c-30.782 0-55.738-24.932-55.738-55.689 0-9.0356 2.1673-17.56 5.9912-25.107l-1.9947-3.3356c-5.838 9.21-9.2329 20.121-9.2329 31.832 0 32.912 26.704 59.592 59.646 59.592h359.87c32.941 0 59.646-26.681 59.646-59.592 0-11.42-3.2207-22.088-8.7968-31.153l-2.1827 2.6404z"/>
 <path opacity=".6" fill="url(#linearGradient6223)" d="m54.659 1.9579c-18.241 0-33.029 14.775-33.029 33s14.788 33 33.029 33h371.29c18.241 0 33.03-14.775 33.03-33s-14.788-33-33.03-33h-371.29z"/>
 <path opacity=".9" fill="#fff" d="m419.54 1.9569h-359.45c-21.347 0-40.431 11.075-50.302 27.953 0.3535 0.35318 1.2863 1.3749 2.1771 0.68394 7.0545-9.3971 13.022-14.527 18.223-17.324 6.7599-3.8191 18.528-7.2458 29.901-7.2458h359.45c11.375 0 23.143 3.4267 29.901 7.2458 5.2 2.7974 11.17 7.927 18.222 17.324 0.89356 0.69094 1.825-0.33076 2.1785-0.68394-9.87-16.877-28.95-27.953-50.3-27.953z"/>
</svg>
