<?xml version="1.0" encoding="UTF-8" standalone="no"?>
<svg xmlns:rdf="http://www.w3.org/1999/02/22-rdf-syntax-ns#" xmlns="http://www.w3.org/2000/svg" contentScriptType="text/ecmascript" viewBox="0 0 483.68138 123.71903" height="123.72" width="483.68" contentStyleType="text/css" version="1.1" zoomAndPan="magnify" preserveAspectRatio="xMidYMid meet" xmlns:cc="http://creativecommons.org/ns#" xmlns:xlink="http://www.w3.org/1999/xlink" xmlns:dc="http://purl.org/dc/elements/1.1/">
 <defs>
  <linearGradient id="linearGradient21275" x1="427.48" gradientUnits="userSpaceOnUse" y1="37.869" gradientTransform="matrix(.28060 0 0 -.29566 308.73 174.93)" x2="427.48" y2="225.62">
   <stop offset="0"/>
   <stop stop-opacity="0" offset="1"/>
  </linearGradient>
  <linearGradient id="linearGradient3276" y2="-106.75" xlink:href="#linearGradient21275" gradientUnits="userSpaceOnUse" x2="258.79" gradientTransform="matrix(1 0 0 1.0001 -16.793 174.68)" y1="-32.546" x1="258.79"/>
  <linearGradient id="linearGradient3291" y2="24.139" xlink:href="#linearGradient21275" gradientUnits="userSpaceOnUse" x2="-156.18" gradientTransform="matrix(1.372 0 0 1.372 515.98 21.439)" y1="-10.234" x1="-156.47"/>
  <linearGradient id="linearGradient3010" x1="-156.47" gradientUnits="userSpaceOnUse" y1="-10.234" gradientTransform="matrix(1.372 0 0 1.372 515.98 21.439)" x2="-156.18" y2="24.139">
   <stop stop-color="#FFF" offset="0"/>
   <stop stop-color="#FFF" stop-opacity="0" offset="1"/>
  </linearGradient>
  <linearGradient id="linearGradient4094" y2="36.799" gradientUnits="userSpaceOnUse" y1="-13.495" x2="185.46" x1="185.28">
   <stop offset="0"/>
   <stop stop-opacity="0" offset="1"/>
  </linearGradient>
  <linearGradient id="linearGradient3019" y2="36.799" xlink:href="#linearGradient4094" gradientUnits="userSpaceOnUse" x2="185.46" y1="-13.495" x1="185.28"/>
 </defs>
 <path id="bgColor00" fill="#003380" d="m17.973 4.274c-0.78459 0.78891-12.469 12.547-13.054 13.138-1.1218 1.1304-2.9238 2.7125-2.9238 6.0304v75.787c0 3.3194 1.802 4.9042 2.9238 6.0304 0.58562 0.5899 12.27 12.351 13.054 13.141 1.1218 1.1304 2.6938 2.9439 5.9916 2.9439h436.06c3.2964 0 4.8669-1.8163 5.9916-2.9439 0.78317-0.79172 12.469-12.55 13.053-13.141 1.1218-1.1276 2.9224-2.7125 2.9224-6.0304v-75.787c0-3.3179-1.8006-4.9-2.9224-6.0304-0.58422-0.58992-12.27-12.348-13.053-13.142-1.1247-1.1262-2.6952-2.9397-5.9916-2.9397h-436.06c-2.5358-0.013828-4.2911 1.2364-5.9916 2.9437z"/>
 <path opacity=".8" fill="#333" d="m17.973 4.274c-0.785 0.789-12.469 12.547-13.054 13.138-1.1218 1.13-2.9238 2.713-2.9238 6.03v75.787c0 3.3194 1.802 4.9042 2.9238 6.0304 0.58562 0.5899 12.27 12.351 13.054 13.141 1.1218 1.1304 2.6938 2.9439 5.9916 2.9439h436.06c3.2964 0 4.8669-1.8163 5.9916-2.9439 0.78317-0.79172 12.469-12.55 13.053-13.141 1.1218-1.1276 2.9224-2.7125 2.9224-6.0304v-75.787c0-3.3179-1.8006-4.9-2.9224-6.0304-0.58422-0.58992-12.27-12.348-13.053-13.142-1.1247-1.1262-2.6952-2.9397-5.9916-2.9397h-436.06c-2.5356-0.0098-4.2916 1.2404-5.9916 2.9477zm2.0026 112.14c-4.4254-4.45-8.8456-8.9054-13.272-13.355-1.0118-1.0091-1.8867-1.8784-1.8867-3.8288v-75.789c0-1.9461 0.87208-2.8155 1.8838-3.8231 4.4985-4.5237 8.9946-9.05 13.49-13.577 0.99625-1.0147 1.8556-1.8911 3.7747-1.8911h436.06c1.9135 0 2.7757 0.87357 3.7705 1.8869 4.4958 4.5292 8.9945 9.0556 13.493 13.583 1.0104 1.0062 1.8824 1.8756 1.8824 3.8217v75.789c0 1.9504-0.87349 2.8197-1.8853 3.8259-4.4971 4.5275-8.9968 9.0524-13.493 13.581-0.99484 1.0133-1.8542 1.8854-3.7677 1.8854h-436.08c-1.712-0.007-2.8066-1.0128-3.9892-2.1084l0.002-0.0005h-0.0005z"/>
 <path fill-opacity=".55" fill="#333" d="m23.811 0.00012998c-3.138-0.01712-5.448 1.6595-7.281 3.5-0.79497 0.79934-12.482 12.539-13.094 13.156-1.0401 1.0481-3.4375 3.339-3.4375 7.3125v75.781c0 3.9603 2.4196 6.2287 3.4688 7.2812l-0.031 0.032c0.60981 0.61427 12.299 12.355 13.062 13.125 1.0284 1.0363 3.3352 3.5312 7.3125 3.5312h436.06c3.9772 0 6.2358-2.5144 7.25-3.5312a1.8286 1.8286 0 0 0 0.0312 0c0.73956-0.74762 12.411-12.465 13.062-13.125h-0.0312v-0.0312c1.037-1.0413 3.5-3.3107 3.5-7.2812v-75.781c0-3.985-2.4406-6.2765-3.4688-7.3125-0.61129-0.61728-12.327-12.41-13.062-13.156a1.8286 1.8286 0 0 0 -0.0312 0c-1.0247-1.026-3.2838-3.5-7.25-3.5h-436.06zm0 6.5h436.06c1.3447 0 1.4277 0.31516 2.4375 1.3438 4.499 4.5324 9.0042 9.0378 13.5 13.562a1.8286 1.8286 0 0 0 0.0312 0c0.99733 0.99319 1.3125 1.158 1.3125 2.5625v75.781c0 1.4109-0.29962 1.524-1.3125 2.5312a1.8286 1.8286 0 0 0 -0.0312 0c-4.4972 4.5275-9.0037 9.065-13.5 13.594-0.99672 1.0152-1.0729 1.3125-2.4375 1.3125h-436.09c-1.0157-0.004-1.544-0.5-2.725-1.594-4.4108-4.435-8.84-8.848-13.25-13.281-1.0018-0.999-1.3125-1.152-1.3125-2.563v-75.781c0-1.4054 0.31376-1.5678 1.3125-2.5625 4.4966-4.5218 9.0334-9.033 13.531-13.562 1.0003-1.0188 1.1159-1.3438 2.4688-1.3438z"/>
 <g opacity=".6" fill="url(#linearGradient3291)" transform="matrix(1.4342 0 0 1.4113 -13.478 -5.6874)">
  <path fill="url(#linearGradient3010)" d="m343.56 44.109v-23.004c0-2.268-1.232-3.35-2-4.119-0.4-0.404-8.395-8.438-8.93-8.977-0.77-0.771-1.844-0.59268-4.1-0.59268-0.96 0.001-299.84 0.001-300.78 0.001-2.256 0-3.332-0.17732-4.1 0.59268-0.537 0.541-8.53 8.572-8.932 8.977-0.767 0.77-2 1.852-2 4.119v23.004l3.387 2.999h324.05l3.414-3z"/>
 </g>
 <path opacity=".6" fill="url(#linearGradient3276)" d="m474.01 70.344c0 15.571 1.1444 24.013 0.34008 25.82-1.8613 4.1901-16.014 15.284-15.868 16.082 0.0438 0.24274-435.02 0.24274-434.98 0 0.14534-0.79595-12.007-11.891-13.868-16.082-0.805-1.8102 0.34-10.245 0.34-25.816 0-38.931-7.98-41.877-7.98-22.84v47.711c0 4.2197 1.3391 6.084 5.0193 9.9946 2.3509 2.3188 14.163 15.122 14.471 13.87 0.0353-0.14678 440.98-0.14678 441.02 0 0.30902 1.2518 12.121-11.552 14.471-13.87 3.6788-3.9106 5.0193-5.775 5.0193-9.9946v-47.716l-7.9847 22.841z"/>
 <g opacity=".7" fill="#bdbdbd" transform="matrix(1.4111 0 0 1.4113 -6.4725 -8.445)">
  <path fill="#bdbdbd" d="m344.18 21.779 1.652-0.955c-0.431-1.16-1.202-1.877-1.751-2.43-0.416-0.418-8.707-8.75-9.264-9.311-0.8-0.798-1.91-2.083-4.25-2.083h-308.98c-2.34 0-3.456 1.285-4.252 2.086-0.557 0.559-8.848 8.891-9.264 9.309-0.431 0.434-0.998 0.969-1.432 1.734l1.603 1.115c0.103-0.168 0.22-0.324 0.36-0.465 0.401-0.404 8.395-8.436 8.932-8.977 0.768-0.77 1.844-2.01 4.1-2.01h308.88c2.256 0 3.331 1.238 4.1 2.01 0.536 0.539 8.53 8.572 8.931 8.977 0.276 0.278 0.481 0.6 0.633 1h-0.001z"/>
 </g>
 <g opacity=".9" fill="url(#linearGradient3019)" transform="matrix(-1.4342 0 0 -1.4113 497.54 129.63)">
  <path fill="url(#linearGradient3019)" d="m343.56 21.105c0-2.268-1.232-3.35-2-4.119-0.4-0.404-8.395-8.438-8.93-8.977-0.77-0.771-1.844-0.59268-4.1-0.59268-0.96 0.001-299.84 0.001-300.78 0.001-2.256 0-3.332-0.17732-4.1 0.59268-0.537 0.541-8.53 8.572-8.932 8.977-0.767 0.77-2 1.852-2 4.119v20.17l330.85-0.001-0.01-20.17z"/>
 </g>
</svg>
