<?xml version="1.0" encoding="utf-8"?>
<!-- Generator: Adobe Illustrator 15.0.0, SVG Export Plug-In . SVG Version: 6.00 Build 0)  -->
<!DOCTYPE svg PUBLIC "-//W3C//DTD SVG 1.1//EN" "http://www.w3.org/Graphics/SVG/1.1/DTD/svg11.dtd">
<svg version="1.1"
	 id="Livello_1" xmlns:dc="http://purl.org/dc/elements/1.1/" xmlns:rdf="http://www.w3.org/1999/02/22-rdf-syntax-ns#" xmlns:cc="http://creativecommons.org/ns#"
	 xmlns="http://www.w3.org/2000/svg" xmlns:xlink="http://www.w3.org/1999/xlink" x="0px" y="0px" width="524.23px" height="166px"
	 viewBox="0 0 524.23 166" enable-background="new 0 0 524.23 166" xml:space="preserve">
<g id="g8350" transform="matrix(1.4048154,0,0,1.4048154,0,-2.8156708e-6)">
	<g id="g8352">
		
			<linearGradient id="path8365_1_" gradientUnits="userSpaceOnUse" x1="116.0942" y1="140.567" x2="152.724" y2="-65.4234" gradientTransform="matrix(1.4048 0 0 -1.4048 6.5024 161.0514)">
			<stop  offset="0" style="stop-color:#4D4D4D"/>
			<stop  offset="0.2047" style="stop-color:#474747"/>
			<stop  offset="0.4568" style="stop-color:#383838"/>
			<stop  offset="0.7324" style="stop-color:#1F1F1F"/>
			<stop  offset="1" style="stop-color:#000000"/>
		</linearGradient>
		<path id="path8365" opacity="0.25" fill="url(#path8365_1_)" enable-background="new    " d="M314.54,105.92
			c-0.154,0.001-255.31,0.002-255.46,0.002c-25.867,0-46.836-20.972-46.836-46.838c0-25.868,20.969-46.839,46.836-46.839
			c0.121,0,255.24,0,255.36,0.001c25.701,0.194,46.479,21.09,46.479,46.838C360.92,84.797,340.194,105.672,314.54,105.92z M314.37,0
			C314.26-0.001,101.7-0.001,59.08-0.001c-32.578,0-59.084,26.505-59.084,59.084c0,32.577,26.506,59.08,59.084,59.08h255.18
			c32.48-0.104,58.898-26.608,58.898-59.08c0-32.426-26.377-58.931-58.797-59.083H314.37z"/>
		
			<linearGradient id="path8378_1_" gradientUnits="userSpaceOnUse" x1="116.3034" y1="139.386" x2="152.3034" y2="-63.026" gradientTransform="matrix(1.4048 0 0 -1.4048 6.5024 161.0514)">
			<stop  offset="0" style="stop-color:#4D4D4D"/>
			<stop  offset="0.2047" style="stop-color:#474747"/>
			<stop  offset="0.4568" style="stop-color:#383838"/>
			<stop  offset="0.7324" style="stop-color:#1F1F1F"/>
			<stop  offset="1" style="stop-color:#000000"/>
		</linearGradient>
		<path id="path8378" opacity="0.625" fill="url(#path8378_1_)" enable-background="new    " d="M314.54,105.92
			c-0.167,0.002-255.31,0.002-255.46,0.002c-25.867,0-46.836-20.971-46.836-46.837c0-25.869,20.969-46.839,46.836-46.839
			c0.158,0,255.3,0,255.47,0.002c25.649,0.254,46.366,21.126,46.366,46.837c0,25.712-20.723,46.587-46.377,46.835H314.54z
			 M314.36,1.42H59.08c-31.821,0-57.666,25.844-57.666,57.667c0,31.821,25.845,57.664,57.666,57.664h255.18
			c31.73-0.102,57.48-25.927,57.48-57.664c0.01-31.703-25.7-57.519-57.38-57.668V1.42z"/>
		
			<linearGradient id="path8391_1_" gradientUnits="userSpaceOnUse" x1="116.5182" y1="138.2035" x2="151.8681" y2="-60.6258" gradientTransform="matrix(1.4048 0 0 -1.4048 6.5024 161.0514)">
			<stop  offset="0" style="stop-color:#4D4D4D"/>
			<stop  offset="0.2047" style="stop-color:#474747"/>
			<stop  offset="0.4568" style="stop-color:#383838"/>
			<stop  offset="0.7324" style="stop-color:#1F1F1F"/>
			<stop  offset="1" style="stop-color:#000000"/>
		</linearGradient>
		<path id="path8391" fill="url(#path8391_1_)" d="M314.55,105.92c-0.181,0.002-255.31,0.003-255.46,0.003
			c-25.867,0-46.836-20.973-46.836-46.838c0-25.869,20.969-46.839,46.836-46.839c0.195,0,255.36,0,255.58,0.003
			c25.598,0.313,46.255,21.163,46.255,46.836C360.925,84.796,340.203,105.671,314.55,105.92z M314.351,2.84H59.08
			c-31.064,0-56.248,25.183-56.248,56.249c0,31.064,25.184,56.247,56.248,56.247h255.18c30.979-0.1,56.063-25.244,56.063-56.247
			c0.01-30.975-25.03-56.102-55.97-56.248L314.351,2.84z"/>
	</g>
	
		<linearGradient id="path8412_1_" gradientUnits="userSpaceOnUse" x1="128.1888" y1="114.9339" x2="128.1888" y2="-7.7263" gradientTransform="matrix(1.4048 0 0 -1.4048 6.5024 161.0514)">
		<stop  offset="0" style="stop-color:#696969"/>
		<stop  offset="0.1198" style="stop-color:#6E6E6E"/>
		<stop  offset="0.2472" style="stop-color:#7A7A7A"/>
		<stop  offset="0.4775" style="stop-color:#FFFFFF"/>
		<stop  offset="0.573" style="stop-color:#EDEDED"/>
		<stop  offset="0.6067" style="stop-color:#383838"/>
		<stop  offset="0.6461" style="stop-color:#141414"/>
		<stop  offset="0.7303" style="stop-color:#828282"/>
		<stop  offset="0.8933" style="stop-color:#000000"/>
	</linearGradient>
	<path id="path8412" fill="url(#path8412_1_)" d="M314.24,3.7H59.08C28.495,3.7,3.7,28.496,3.7,59.084
		c0,30.586,24.795,55.382,55.381,55.382c0.146,0,255.28,0,255.441-0.002c30.388-0.236,54.945-24.94,54.945-55.38
		c0.01-30.54-24.7-55.302-55.22-55.39L314.24,3.7z M314.591,105.92c-0.202,0.002-255.34,0.003-255.51,0.003
		c-25.867,0-46.836-20.973-46.836-46.838c0-25.869,20.969-46.839,46.836-46.839c0.171,0,255.311,0,255.51,0.003
		c25.631,0.275,46.327,21.139,46.327,46.836C360.918,84.779,340.222,105.645,314.591,105.92z"/>
	<path id="path8414" fill="#FFFFFF" d="M314.44,12.246c-0.12-0.001-255.24-0.001-255.36-0.001
		c-25.867,0-46.836,20.971-46.836,46.839c0,25.866,20.969,46.838,46.836,46.838c0.154,0,255.31-0.001,255.46-0.003
		c25.655-0.247,46.379-21.123,46.379-46.835C360.92,33.336,340.142,12.44,314.44,12.246z M314.54,104.728
		c-0.153,0.003-255.31,0.003-255.46,0.003c-25.209,0-45.646-20.437-45.646-45.646c0-25.212,20.438-45.648,45.646-45.648
		c0.154,0,255.31,0.001,255.46,0.002c24.999,0.248,45.188,20.588,45.188,45.646C359.728,84.14,339.54,104.481,314.54,104.728z"/>
	
		<linearGradient id="path8427_1_" gradientUnits="userSpaceOnUse" x1="162.2197" y1="142.4815" x2="65.1697" y2="-56.8485" gradientTransform="matrix(1.4048 0 0 -1.4048 6.5024 161.0514)">
		<stop  offset="0.0056" style="stop-color:#666666"/>
		<stop  offset="0.1854" style="stop-color:#D1D1D1"/>
		<stop  offset="0.2416" style="stop-color:#E3E3E3"/>
		<stop  offset="0.4326" style="stop-color:#FFFFFF"/>
		<stop  offset="0.8034" style="stop-color:#1A1A1A"/>
	</linearGradient>
	<path id="path8427" fill="url(#path8427_1_)" d="M314.611,13.114c-0.18-0.002-255.35-0.003-255.531-0.003
		c-25.389,0-45.971,20.582-45.971,45.973c0,25.389,20.582,45.971,45.971,45.971c0.176,0,255.351-0.001,255.531-0.003
		c25.148-0.282,45.446-20.755,45.446-45.968C360.057,33.869,339.759,13.396,314.611,13.114z M314.755,101.913
		c-0.223,0.003-255.45,0.005-255.67,0.005c-23.656,0-42.834-19.178-42.834-42.834c0-23.658,19.178-42.836,42.834-42.836
		c0.176,0,255.35,0.001,255.53,0.003c23.416,0.282,42.309,19.351,42.309,42.833c0,23.433-18.816,42.471-42.166,42.829H314.755z"/>
	
		<linearGradient id="path8434_1_" gradientUnits="userSpaceOnUse" x1="128.3174" y1="70.597" x2="128.3174" y2="119.081" gradientTransform="matrix(1.4048 0 0 -1.4048 6.5024 161.0514)">
		<stop  offset="0.427" style="stop-color:#525252"/>
		<stop  offset="0.7753" style="stop-color:#0D0D0D"/>
	</linearGradient>
	<path id="path8434" fill="url(#path8434_1_)" d="M16.101,49.082c1.355,0.227,0.643,4.302,1.232,1.468
		c4.051-19.446,21.287-34.055,41.934-34.055c0.161,0,255.32,0.001,255.48,0.003c21.849,0.242,39.769,16.837,42.097,38.123
		c0.168,1.546-0.339-2.659,1.148-2.973c2.32-0.489,2.244,8.947,2.244,7.683c0-25.086-20.091-45.478-45.061-45.963
		c-0.304-0.006-255.61-0.009-255.91-0.009c-25.391,0-45.973,20.582-45.973,45.972c0.001,1.95,0.686-10.602,2.808-10.249H16.101z"/>
	
		<linearGradient id="path8445_1_" gradientUnits="userSpaceOnUse" x1="6.9362" y1="72.5852" x2="347.6042" y2="72.5852" gradientTransform="matrix(1.4048 0 0 -1.4048 6.5024 161.0514)">
		<stop  offset="0.0056" style="stop-color:#666666"/>
		<stop  offset="0.3034" style="stop-color:#D1D1D1"/>
		<stop  offset="0.4663" style="stop-color:#FFFFFF"/>
		<stop  offset="0.8034" style="stop-color:#1A1A1A"/>
	</linearGradient>
	<path id="path8445" opacity="0.54" fill="url(#path8445_1_)" enable-background="new    " d="M314.47,16.249
		c-0.13-0.001-255.26-0.001-255.39-0.001c-23.656,0-42.834,19.178-42.834,42.836c0,23.656,19.178,42.834,42.834,42.834
		c0.225,0,255.45-0.001,255.67-0.005c23.348-0.359,42.164-19.396,42.164-42.829c0-23.53-18.97-42.627-42.45-42.835H314.47z
		 M314.612,101.267c-0.176,0.001-255.35,0.003-255.53,0.003c-23.297,0-42.186-18.887-42.186-42.186
		c0-23.3,18.889-42.188,42.186-42.188c0.176,0,255.351,0.001,255.53,0.003c23.058,0.283,41.661,19.061,41.661,42.185
		c0.001,23.122-18.601,41.899-41.659,42.183H314.612z"/>
</g>
<path id="bgColor00" fill="#7F7C7C" d="M441.971,142.261c-0.248,0.002-358.72,0.005-358.973,0.005
	c-32.727,0-59.262-26.533-59.262-59.264c0-32.732,26.535-59.267,59.263-59.267c0.248,0,358.721,0.001,358.973,0.004
	c32.393,0.398,58.524,26.777,58.524,59.262c0,32.481-26.131,58.86-58.522,59.26H441.971z"/>
</svg>
