<?xml version="1.0" encoding="UTF-8" standalone="no"?>
<!DOCTYPE svg  PUBLIC '-//W3C//DTD SVG 1.1//EN'  'http://www.w3.org/Graphics/SVG/1.1/DTD/svg11.dtd'>
<svg xmlns="http://www.w3.org/2000/svg" xml:space="preserve" height="166px" viewBox="0 0 524.232 166" width="524.23px" version="1.1" y="0px" x="0px" xmlns:xlink="http://www.w3.org/1999/xlink" enable-background="new 0 0 524.232 166">
			<linearGradient id="SVGID_1_" y2="-277.28" gradientUnits="userSpaceOnUse" x2="419.27" gradientTransform="matrix(1 0 0 -1 -157.15 -80.73)" y1="-78.702" x1="419.27">
			<stop stop-color="#4D4D4D" offset="0"/>
			<stop stop-color="#474747" offset=".2047"/>
			<stop stop-color="#383838" offset=".4568"/>
			<stop stop-color="#1F1F1F" offset=".7324"/>
			<stop offset="1"/>
		</linearGradient>
		<path opacity=".25" enable-background="new    " d="m507.03 120.72c0 5.637-3.151 8.77-4.5 10.105l-13.36 13.453c-1.334 1.353-4.456 4.521-10.076 4.521h-433.95c-5.637 0-8.759-3.183-10.093-4.541l-13.346-13.435c-1.347-1.336-4.5-4.469-4.5-10.104v-75.44c0-5.625 3.147-8.758 4.492-10.095l13.354-13.439c1.334-1.358 4.456-4.544 10.093-4.544h433.95c5.623 0 8.742 3.172 10.076 4.525l13.372 13.458c1.345 1.336 4.488 4.47 4.488 10.095v75.44zm7.64-97.727l-13.26-13.351c-2.34-2.376-9.5-9.642-22.32-9.642h-433.95c-12.862 0-20.021 7.301-22.372 9.699l-13.113 13.198c-2.379 2.365-9.655 9.611-9.655 22.384v75.442c0 12.797 7.211 19.951 9.581 22.307l13.206 13.293c2.332 2.38 9.491 9.679 22.354 9.679h433.95c12.83 0 19.979-7.269 22.33-9.655l13.155-13.242c2.373-2.355 9.652-9.586 9.652-22.381v-75.439c0-12.781-7.19-19.937-9.56-22.288z" fill="url(#SVGID_1_)"/>
			<linearGradient id="SVGID_2_" y2="-274.56" gradientUnits="userSpaceOnUse" x2="419.27" gradientTransform="matrix(1 0 0 -1 -157.15 -80.73)" y1="-80.742" x1="419.27">
			<stop stop-color="#4D4D4D" offset="0"/>
			<stop stop-color="#474747" offset=".2047"/>
			<stop stop-color="#383838" offset=".4568"/>
			<stop stop-color="#1F1F1F" offset=".7324"/>
			<stop offset="1"/>
		</linearGradient>
		<path opacity=".625" enable-background="new    " d="m507.03 120.72c0 5.633-3.151 8.768-4.5 10.104l-13.36 13.45c-1.334 1.354-4.457 4.523-10.076 4.523h-433.95c-5.637 0-8.76-3.186-10.093-4.543l-13.345-13.432c-1.347-1.338-4.5-4.473-4.5-10.105v-75.44c0-5.626 3.146-8.758 4.491-10.096l13.354-13.438c1.333-1.358 4.457-4.543 10.093-4.543h433.95c5.623 0 8.742 3.171 10.076 4.523l13.373 13.458c1.344 1.338 4.487 4.47 4.487 10.096v75.44zm6.24-96.316l-13.271-13.36c-2.202-2.235-8.921-9.053-20.905-9.053h-433.96c-12.023 0-18.743 6.85-20.95 9.102l-13.123 13.207c-2.282 2.271-9.076 9.034-9.076 20.98v75.441c0 11.965 6.768 18.686 8.992 20.895l13.217 13.3c2.198 2.242 8.917 9.091 20.94 9.091h433.95c11.992 0 18.706-6.819 20.912-9.062l13.162-13.248c2.271-2.258 9.073-9.014 9.073-20.979v-75.44c0.01-11.95-6.74-18.669-8.96-20.876z" fill="url(#SVGID_2_)"/>
			<linearGradient id="SVGID_3_" y2="-271.84" gradientUnits="userSpaceOnUse" x2="419.27" gradientTransform="matrix(1 0 0 -1 -157.15 -80.73)" y1="-82.782" x1="419.27">
			<stop stop-color="#4D4D4D" offset="0"/>
			<stop stop-color="#474747" offset=".2047"/>
			<stop stop-color="#383838" offset=".4568"/>
			<stop stop-color="#1F1F1F" offset=".7324"/>
			<stop offset="1"/>
		</linearGradient>
		<path d="m507.03 120.72c0 5.633-3.151 8.766-4.5 10.105l-13.362 13.449c-1.335 1.354-4.456 4.524-10.074 4.524h-433.96c-5.637 0-8.761-3.187-10.094-4.545l-13.345-13.43c-1.348-1.341-4.5-4.474-4.5-10.104v-75.431c0-5.627 3.146-8.758 4.49-10.097l13.354-13.439c1.333-1.358 4.457-4.541 10.094-4.541h433.95c5.621 0 8.742 3.169 10.075 4.522l13.371 13.458c1.346 1.339 4.49 4.47 4.49 10.097l0.01 75.441zm4.83-94.905l-13.278-13.368c-2.063-2.094-8.341-8.465-19.493-8.465h-433.95c-11.185 0-17.465 6.399-19.527 8.503l-13.134 13.218c-2.187 2.176-8.496 8.456-8.496 19.577v75.441c0 11.135 6.324 17.418 8.403 19.48l13.227 13.313c2.063 2.105 8.344 8.504 19.527 8.504h433.95c11.152 0 17.431-6.371 19.492-8.468l13.169-13.255c2.172-2.156 8.495-8.439 8.495-19.574v-75.431c0.01-11.12-6.3-17.401-8.38-19.464z" fill="url(#SVGID_3_)"/>
		<linearGradient id="SVGID_4_" y2="-245.88" gradientUnits="userSpaceOnUse" x2="419.27" gradientTransform="matrix(1 0 0 -1 -157.15 -80.73)" y1="-79.795" x1="419.27">
		<stop stop-color="#696969" offset="0"/>
		<stop stop-color="#6E6E6E" offset=".1198"/>
		<stop stop-color="#7A7A7A" offset=".2472"/>
		<stop stop-color="#fff" offset=".4775"/>
		<stop stop-color="#EDEDED" offset=".573"/>
		<stop stop-color="#383838" offset=".6067"/>
		<stop stop-color="#141414" offset=".6461"/>
		<stop stop-color="#828282" offset=".7303"/>
		<stop offset=".8933"/>
	</linearGradient>
	<path d="m511.01 26.674l-13.29-13.374c-1.976-2.005-7.982-8.105-18.628-8.105h-433.95c-10.676 0-16.688 6.127-18.662 8.141l-13.254 13.338c-1.985 1.976-8.025 7.99-8.025 18.605v75.442c0 10.629 6.054 16.643 8.043 18.618l13.236 13.324c1.976 2.015 7.986 8.142 18.662 8.142h433.95c10.645 0 16.652-6.104 18.628-8.105l13.17-13.258c2.09-2.077 8.144-8.092 8.144-18.721v-75.441c0-10.615-6.04-16.63-8.02-18.605zm-3.98 94.046c0 5.633-3.151 8.766-4.5 10.105l-13.362 13.449c-1.335 1.354-4.456 4.524-10.074 4.524h-433.96c-5.637 0-8.761-3.187-10.094-4.545l-13.345-13.43c-1.348-1.341-4.5-4.474-4.5-10.104v-75.431c0-5.627 3.146-8.758 4.49-10.097l13.354-13.439c1.333-1.358 4.457-4.541 10.094-4.541h433.95c5.621 0 8.742 3.169 10.075 4.522l13.371 13.458c1.346 1.339 4.49 4.47 4.49 10.097l0.01 75.441z" fill="url(#SVGID_4_)"/>
		<linearGradient id="SVGID_5_" y2="-314.05" gradientUnits="userSpaceOnUse" x2="369.48" gradientTransform="matrix(1 0 0 -1 -157.15 -80.73)" y1="12.532" x1="477.64">
		<stop stop-color="#666" offset=".0056"/>
		<stop stop-color="#D1D1D1" offset=".1854"/>
		<stop stop-color="#E3E3E3" offset=".2416"/>
		<stop stop-color="#fff" offset=".4326"/>
		<stop stop-color="#1A1A1A" offset=".8034"/>
	</linearGradient>
	<path d="m501.68 36.044l-13.38-13.467c-1.331-1.35-4.101-4.16-9.21-4.16h-433.95c-5.124 0-7.895 2.821-9.226 4.179l-13.364 13.448c-1.341 1.336-4.131 4.113-4.131 9.233v75.44c0 5.131 2.796 7.908 4.142 9.244l13.354 13.441c1.331 1.359 4.102 4.18 9.226 4.18h433.95c5.108 0 7.878-2.811 9.207-4.162l13.373-13.459c1.345-1.336 4.141-4.113 4.141-9.244v-75.44c0-5.123-2.79-7.9-4.13-9.236zm-0.28 84.676c0 3.297-1.708 4.994-2.839 6.117l-13.407 13.493c-1.115 1.134-2.803 2.846-6.065 2.846h-433.94c-3.274 0-4.962-1.718-6.079-2.856l-13.396-13.481c-1.13-1.123-2.838-2.821-2.838-6.117v-75.44c0-3.287 1.705-4.985 2.833-6.108l13.4-13.486c1.117-1.139 2.805-2.859 6.079-2.859h433.95c3.265 0 4.952 1.712 6.067 2.845l13.411 13.5c1.128 1.123 2.833 2.821 2.833 6.108v75.44z" fill="url(#SVGID_5_)"/>
		<linearGradient id="SVGID_6_" y2="-228.72" gradientUnits="userSpaceOnUse" x2="419.27" gradientTransform="matrix(1 0 0 -1 -157.15 -80.73)" y1="-58.708" x1="419.27">
		<stop stop-color="#666" offset=".0056"/>
		<stop stop-color="#D1D1D1" offset=".3034"/>
		<stop stop-color="#fff" offset=".4663"/>
		<stop stop-color="#1A1A1A" offset=".8034"/>
	</linearGradient>
	<path d="m498.57 39.169l-13.412-13.498c-1.116-1.133-2.805-2.845-6.068-2.845h-433.95c-3.273 0-4.961 1.719-6.077 2.857l-13.402 13.486c-1.128 1.123-2.834 2.821-2.834 6.109v75.44c0 3.294 1.709 4.992 2.84 6.115l13.396 13.481c1.116 1.14 2.804 2.857 6.077 2.857h433.95c3.265 0 4.95-1.713 6.065-2.847l13.409-13.493c1.131-1.123 2.837-2.82 2.837-6.115v-75.44c-0.01-3.29-1.71-4.988-2.84-6.111zm2.39 81.551c0 3.305-1.795 4.881-2.911 6.004-0.582 0.588-12.216 12.293-12.995 13.08-1.119 1.121-2.684 2.93-5.965 2.93h-433.95c-3.282 0-4.85-1.805-5.966-2.93-0.778-0.785-12.412-12.492-12.994-13.08-1.116-1.123-2.911-2.699-2.911-6.004v-75.44c0-3.304 1.795-4.878 2.911-6.003 0.582-0.587 12.216-12.292 12.994-13.077 1.116-1.125 2.684-2.93 5.966-2.93h433.95c3.281 0 4.846 1.805 5.965 2.927 0.779 0.788 12.413 12.493 12.995 13.08 1.116 1.125 2.911 2.7 2.911 6.003-0.01 1.973-0.01 73.47-0.01 75.44z" fill="url(#SVGID_6_)"/>
		<linearGradient id="SVGID_7_" y2="-92.82" gradientUnits="userSpaceOnUse" x2="419.32" gradientTransform="matrix(1 0 0 -1 -157.15 -80.73)" y1="-168.28" x1="419.32">
		<stop stop-color="#525252" offset=".427"/>
		<stop stop-color="#0D0D0D" offset=".7753"/>
	</linearGradient>
	<path d="m20.892 60.703c1.351-1.951 1.986 6.919 1.986 6.919v-22.345c0-3.287 1.705-4.985 2.833-6.108l13.401-13.486c1.116-1.139 2.804-2.859 6.078-2.859h433.95c3.266 0 4.953 1.712 6.068 2.845l13.411 13.5c1.128 1.123 2.832 2.821 2.832 6.108v22.345s1.12-8.837 2.317-7.398c1.759 2.111 2.091 21.447 2.091 21.447v-36.394c0-5.12-2.79-7.896-4.131-9.233l-13.38-13.467c-1.331-1.35-4.099-4.16-9.21-4.16h-433.95c-5.124 0-7.895 2.821-9.226 4.179l-13.362 13.448c-1.34 1.336-4.131 4.113-4.131 9.233v36.393s0.262-17.851 2.421-20.967z" fill="url(#SVGID_7_)"/>
	<path d="m502.54 35.182l-13.372-13.458c-1.333-1.353-4.453-4.523-10.075-4.523h-433.96c-5.637 0-8.76 3.185-10.093 4.542l-13.354 13.439c-1.344 1.338-4.491 4.47-4.491 10.096v75.44c0 5.636 3.152 8.769 4.5 10.104l13.346 13.433c1.333 1.358 4.456 4.543 10.093 4.543h433.95c5.619 0 8.742-3.17 10.075-4.522l13.361-13.451c1.349-1.338 4.5-4.471 4.5-10.105v-75.44c0.01-5.628-3.13-8.76-4.48-10.098zm3.27 85.538c0 5.127-2.796 7.907-4.141 9.24l-13.373 13.46c-1.33 1.353-4.1 4.161-9.208 4.161h-433.95c-5.123 0-7.895-2.822-9.226-4.178l-13.354-13.443c-1.345-1.333-4.142-4.113-4.142-9.24v-75.441c0-5.121 2.791-7.899 4.13-9.234l13.365-13.449c1.331-1.357 4.103-4.179 9.226-4.179h433.95c5.111 0 7.88 2.81 9.211 4.16l13.379 13.468c1.342 1.335 4.132 4.113 4.132 9.234v75.441z" fill="#fff"/>
<path id="bgColor00" d="m499.97 119.72c0 3.305-1.795 4.881-2.911 6.004-0.582 0.588-12.216 12.293-12.995 13.08-1.118 1.121-2.684 2.93-5.965 2.93h-433.95c-3.282 0-4.851-1.805-5.967-2.93-0.777-0.785-12.411-12.492-12.993-13.08-1.116-1.123-2.911-2.699-2.911-6.004v-75.438c0-3.304 1.795-4.878 2.911-6.003 0.574-0.589 12.208-12.294 12.986-13.079 1.116-1.125 2.685-2.93 5.967-2.93h433.95c3.282 0 4.847 1.805 5.965 2.927 0.779 0.788 12.413 12.493 12.995 13.08 1.116 1.125 2.911 2.7 2.911 6.003v75.44z" fill="#7F7C7C"/>
</svg>
