<?xml version="1.0" encoding="UTF-8" standalone="no"?>
<!DOCTYPE svg  PUBLIC '-//W3C//DTD SVG 1.1//EN'  'http://www.w3.org/Graphics/SVG/1.1/DTD/svg11.dtd'>
<svg xmlns:rdf="http://www.w3.org/1999/02/22-rdf-syntax-ns#" xmlns="http://www.w3.org/2000/svg" xml:space="preserve" enable-background="new 0 0 600 600" viewBox="0 0 600 600" height="600px" width="600px" version="1.1" xmlns:xlink="http://www.w3.org/1999/xlink" y="0px" x="0px" xmlns:cc="http://creativecommons.org/ns#" xmlns:dc="http://purl.org/dc/elements/1.1/">
	<g transform="translate(-100.99 3.0212)">
			<linearGradient id="path2627_1_" y2="64.663" gradientUnits="userSpaceOnUse" x2="1262.7" gradientTransform="matrix(1 0 0 -1 -562.66 364.66)" y1="64.663" x1="662.65">
			<stop stop-color="#5C2C00" offset="0"/>
			<stop offset="1"/>
		</linearGradient>
		<path opacity=".25" d="m399.99-0.006c-165.65 0-300 134.19-300 300s134.35 300 300 300 300-134.19 300-300-134.35-300-300-300zm156.84 453.85c-39.952 39.953-94.799 62.686-151.33 62.686-0.18 0-0.356-0.006-0.539-0.008-0.151 0-0.308 0.007-0.462 0.007-56.535 0-111.38-22.73-151.33-62.688-39.955-39.954-62.685-94.8-62.685-151.34 0-56.533 22.729-111.38 62.685-151.33 0.609-0.607 1.231-1.2 1.85-1.803 0.225-0.227 0.439-0.459 0.667-0.685 39.556-39.557 93.851-62.059 149.82-62.059 55.972 0 110.27 22.502 149.82 62.059 11.479 11.479 21.51 24.205 29.982 37.847 22.087 34.335 34.215 74.701 34.215 115.98 0 56.52-22.73 111.37-62.69 151.33z" enable-background="new    " fill="url(#path2627_1_)"/>
			<linearGradient id="path2634_1_" y2="-236.46" gradientUnits="userSpaceOnUse" x2="850.03" gradientTransform="matrix(1 0 0 -1 -562.66 364.66)" y1="347" x1="1068.6">
			<stop stop-color="#5C2C00" offset="0"/>
			<stop offset="1"/>
		</linearGradient>
		<path opacity=".63" d="m399.91 7.606c-161.62 0-292.71 131.05-292.71 292.97 0 161.58 131.09 292.64 292.71 292.64 161.8 0 292.89-131.05 292.89-292.64 0-161.92-131.08-292.97-292.89-292.97zm156.92 446.22c-39.951 39.952-94.798 62.685-151.33 62.685-0.18 0-0.356-0.007-0.539-0.008-0.151 0-0.308 0.007-0.462 0.007-56.535 0-111.38-22.73-151.33-62.687-39.955-39.953-62.684-94.799-62.684-151.33 0-56.532 22.729-111.38 62.684-151.33 0.609-0.607 1.231-1.2 1.85-1.803 0.225-0.227 0.439-0.459 0.667-0.685 39.555-39.556 93.85-62.058 149.82-62.058 55.971 0 110.27 22.502 149.82 62.058 11.479 11.479 21.509 24.205 29.981 37.846 22.087 34.334 34.215 74.7 34.215 115.98 0 56.52-22.73 111.37-62.69 151.32z" enable-background="new    " fill="url(#path2634_1_)"/>
			<linearGradient id="path2641_1_" y2="-223.45" gradientUnits="userSpaceOnUse" x2="882.23" gradientTransform="matrix(1 0 0 -1 -520.86 359.86)" y1="341.56" x1="959.24">
			<stop stop-color="#5C2C00" offset="0"/>
			<stop offset="1"/>
		</linearGradient>
		<path d="m399.99 14.368c-157.74 0-285.6 127.87-285.6 285.61s127.87 285.61 285.6 285.61c157.73 0 285.6-127.87 285.6-285.61 0.01-157.74-127.87-285.61-285.6-285.61zm156.84 439.47c-39.952 39.954-94.799 62.687-151.33 62.687-0.18 0-0.356-0.006-0.539-0.007-0.151 0-0.308 0.006-0.462 0.006-56.535 0-111.38-22.73-151.33-62.689-39.955-39.953-62.685-94.8-62.685-151.34 0-56.533 22.729-111.38 62.685-151.33 0.609-0.607 1.231-1.201 1.85-1.803 0.225-0.227 0.439-0.459 0.667-0.685 39.556-39.557 93.851-62.06 149.82-62.06 55.972 0 110.27 22.502 149.82 62.06 11.479 11.479 21.51 24.205 29.982 37.847 22.087 34.335 34.215 74.701 34.215 115.98 0 56.52-22.73 111.37-62.69 151.33z" fill="url(#path2641_1_)"/>
			<linearGradient id="path2672_1_" y2="-214.7" gradientUnits="userSpaceOnUse" x2="964.23" gradientTransform="matrix(1 0 0 -1 -562.66 364.66)" y1="345.05" x1="962.75">
			<stop stop-color="#BA734D" offset="0"/>
			<stop stop-color="#C67D54" offset=".0373"/>
			<stop stop-color="#DB8E61" offset=".1172"/>
			<stop stop-color="#E39466" offset=".1697"/>
			<stop stop-color="#FFE3D0" offset=".4545"/>
			<stop stop-color="#fff" offset=".5879"/>
			<stop stop-color="#A8614D" offset=".703"/>
			<stop stop-color="#D67D52" offset=".8182"/>
			<stop stop-color="#C5714A" offset=".8307"/>
			<stop stop-color="#8F4D30" offset=".8731"/>
			<stop stop-color="#65311B" offset=".9126"/>
			<stop stop-color="#471D0C" offset=".9482"/>
			<stop stop-color="#351003" offset=".9785"/>
			<stop stop-color="#2E0C00" offset="1"/>
		</linearGradient>
		<path d="m400.92 19.605c-155.39 0-281.29 126.12-281.29 281.22 0 155.44 125.9 281.23 281.29 281.23 155.23 0 281.13-125.79 281.13-281.23 0-155.09-125.91-281.21-281.13-281.22zm155.91 434.22c-39.952 39.953-94.799 62.685-151.33 62.685-0.18 0-0.356-0.007-0.539-0.008-0.151 0-0.308 0.007-0.462 0.007-56.535 0-111.38-22.73-151.33-62.687-39.955-39.953-62.684-94.798-62.684-151.33s22.728-111.38 62.684-151.33c0.609-0.607 1.231-1.2 1.85-1.803 0.225-0.227 0.439-0.459 0.667-0.685 39.556-39.556 93.85-62.058 149.82-62.058 55.971 0 110.27 22.502 149.82 62.058 11.479 11.479 21.51 24.205 29.981 37.847 22.087 34.334 34.215 74.7 34.215 115.98 0 56.52-22.73 111.37-62.69 151.32z" fill="url(#path2672_1_)"/>
			<linearGradient id="path2685_1_" y2="-140.51" gradientUnits="userSpaceOnUse" x2="859.74" gradientTransform="matrix(1 0 0 -1 -562.66 364.66)" y1="267.47" x1="1072.7">
			<stop stop-color="#A24900" offset=".0056"/>
			<stop stop-color="#FF975C" offset=".1576"/>
			<stop stop-color="#FFAA8B" offset=".2303"/>
			<stop stop-color="#FFF2E7" offset=".4848"/>
			<stop stop-color="#731800" offset=".8121"/>
		</linearGradient>
		<path d="m403.5 68.234c-129.02 0-233.42 104.42-233.42 232.88 0 129.02 104.41 233.98 233.42 233.98 128.85 0 233.43-104.96 233.43-233.98-0.01-128.46-104.59-232.87-233.43-232.88zm153.33 385.6c-39.951 39.953-94.798 62.685-151.33 62.685-0.18 0-0.356-0.007-0.539-0.008-0.151 0-0.308 0.007-0.462 0.007-56.535 0-111.38-22.73-151.33-62.687-39.955-39.953-62.684-94.798-62.684-151.33s22.728-111.38 62.684-151.33c0.609-0.607 1.231-1.2 1.849-1.803 0.225-0.227 0.439-0.459 0.667-0.685 39.555-39.556 93.85-62.058 149.82-62.058 55.971 0 110.27 22.502 149.82 62.058 11.479 11.479 21.51 24.205 29.982 37.847 22.087 34.334 34.214 74.7 34.214 115.98 0 56.52-22.73 111.37-62.69 151.32z" fill="url(#path2685_1_)"/>
			<linearGradient id="path8222_1_" y2="228.4" gradientUnits="userSpaceOnUse" x2="398.33" gradientTransform="matrix(10.02 0 0 -10.021 -3586.9 2354.9)" y1="203.64" x1="398.33">
			<stop stop-color="#8B4300" offset=".4121"/>
			<stop stop-color="#0D0D0D" offset=".7753"/>
		</linearGradient>
		<path d="m185.38 249.32c6.879 1.152 3.271 21.849 6.254 7.454 20.57-98.74 108.1-172.92 212.93-172.92 112.04 0 204.29 84.715 216.2 193.59 0.854 7.854-1.716-13.501 5.828-15.096 11.775-2.484 11.396 45.429 11.396 39.009 0-128.92-104.51-233.43-233.44-233.43s-233.43 104.51-233.43 233.43c0.01 9.91 3.49-53.83 14.26-52.03z" fill="url(#path8222_1_)"/>
			<linearGradient id="path2702_1_" y2="63.657" gradientUnits="userSpaceOnUse" x2="1185.7" gradientTransform="matrix(1 0 0 -1 -562.66 364.66)" y1="63.657" x1="750.72">
			<stop stop-color="#B93D00" offset=".0056"/>
			<stop stop-color="#FFD4B9" offset=".303"/>
			<stop stop-color="#FFF2E7" offset=".4663"/>
			<stop stop-color="#8B2500" offset=".8061"/>
		</linearGradient>
		<path opacity=".54" d="m405.56 83.5c-120.06 0-217.5 97.804-217.5 218.01 0 119.7 97.442 216.99 217.5 216.99 120.22 0 217.5-97.288 217.5-216.99 0-120.21-97.28-218.01-217.5-218.01zm152 369.26c-39.952 39.954-94.799 62.684-151.33 62.684-0.183 0-0.359-0.006-0.539-0.006-0.154 0-0.31 0.006-0.461 0.006-56.536 0-111.38-22.73-151.34-62.687-39.955-39.954-62.688-94.798-62.688-151.33 0-56.536 22.729-111.38 62.688-151.33 39.956-39.956 94.799-62.686 151.34-62.686 0.174 0 0.346 0.006 0.52 0.006 0.16 0 0.32-0.006 0.48-0.006 56.534 0 111.38 22.729 151.33 62.687 39.955 39.955 62.687 94.799 62.687 151.34 0 56.53-22.73 111.38-62.69 151.33z" enable-background="new    " fill="url(#path2702_1_)"/>
			<ellipse cx="404.73" cy="302.58" rx="234.66" stroke="#fff" ry="234.66" stroke-width="4" fill="none">
		</ellipse>
	</g>
<path id="bgColor00" d="m455.84 456.34c-39.953 39.955-94.799 62.684-151.33 62.684-0.182 0-0.358-0.006-0.539-0.006-0.153 0-0.309 0.006-0.461 0.006-56.536 0-111.38-22.729-151.34-62.686-39.955-39.955-62.686-94.796-62.686-151.33 0-56.537 22.729-111.38 62.687-151.33 39.956-39.957 94.798-62.686 151.33-62.686 0.174 0 0.347 0.006 0.521 0.006 0.16 0 0.319-0.006 0.479-0.006 56.535 0 111.38 22.729 151.33 62.686 39.955 39.955 62.686 94.799 62.686 151.34 0 56.53-22.73 111.37-62.68 151.33z" fill="#A3603B"/>
</svg>
